<?xml version="1.0" encoding="UTF-8" standalone="no"?>
<!-- Created with Inkscape (http://www.inkscape.org/) -->

<svg
   width="123.96584mm"
   height="123.96513mm"
   viewBox="0 0 123.96583 123.96514"
   version="1.1"
   id="svg5"
   sodipodi:docname="icon2.svg"
   inkscape:version="1.1.2 (0a00cf5339, 2022-02-04)"
   xmlns:inkscape="http://www.inkscape.org/namespaces/inkscape"
   xmlns:sodipodi="http://sodipodi.sourceforge.net/DTD/sodipodi-0.dtd"
   xmlns="http://www.w3.org/2000/svg"
   xmlns:svg="http://www.w3.org/2000/svg">
  <defs
     id="defs11" />
  <sodipodi:namedview
     id="namedview9"
     pagecolor="#ffffff"
     bordercolor="#666666"
     borderopacity="1.0"
     inkscape:pageshadow="2"
     inkscape:pageopacity="0.0"
     inkscape:pagecheckerboard="0"
     inkscape:document-units="mm"
     showgrid="false"
     units="mm"
     fit-margin-top="10"
     fit-margin-left="10"
     fit-margin-right="10"
     fit-margin-bottom="10"
     lock-margins="true"
     inkscape:zoom="0.70710678"
     inkscape:cx="144.95689"
     inkscape:cy="4.2426407"
     inkscape:window-width="1920"
     inkscape:window-height="1043"
     inkscape:window-x="1080"
     inkscape:window-y="434"
     inkscape:window-maximized="1"
     inkscape:current-layer="layer2"
     showguides="true"
     inkscape:guide-bbox="true" />
  <g
     inkscape:label="contour"
     inkscape:groupmode="layer"
     id="layer1"
     transform="translate(-43.358084,-86.859817)" />
  <g
     inkscape:groupmode="layer"
     id="layer2"
     inkscape:label="contour 1"
     transform="translate(-3.0161639,-3.0165826)">
    <path
       id="path3344"
       style="color:#000000;fill:#000000;stroke-width:3.77953;stroke-linecap:round;-inkscape-stroke:none"
       d="M 235.30664 37.824219 C 204.92545 37.641281 174.22122 44.492675 145.70117 58.896484 C 64.577491 99.867327 22.102118 191.34275 43.144531 279.75586 C 64.186941 368.16896 143.31263 430.69732 234.19531 430.73047 A 13.228346 13.228346 0 0 0 234.54883 430.71484 L 213.16602 402.96289 C 143.50938 394.31111 85.47255 343.34979 68.878906 273.62891 C 50.639568 196.99335 87.313705 118.03067 157.63086 82.517578 C 227.94801 47.004487 313.25853 64.363905 364.10938 124.5293 A 13.228346 13.228346 0 0 0 382.74805 126.08594 A 13.228346 13.228346 0 0 0 384.31445 107.44727 C 347.64836 64.064911 295.29354 39.941742 241.37891 37.953125 C 239.35711 37.878552 237.33205 37.836415 235.30664 37.824219 z "
       transform="matrix(0.26458333,0,0,0.26458333,3.0161639,3.0165826)" />
  </g>
  <g
     inkscape:groupmode="layer"
     id="g27403"
     inkscape:label="mic copy"
     style="display:inline"
     transform="translate(-43.358084,-86.859817)">
    <path
       style="color:#000000;fill:#000000;stroke-linejoin:round;-inkscape-stroke:none"
       d="m 102.14136,178.5332 v 2.7186 l 0,10.1421 6.40112,8.2447 0,-18.80243 v -2.30297 z"
       id="path8134"
       sodipodi:nodetypes="ccccscc" />
    <path
       id="rect23362"
       style="fill:none;stroke:#000000;stroke-width:6;stroke-linecap:round;stroke-linejoin:round"
       d="m 130.03979,152.00241 v 1.6072 c 0,12.74759 -11.01525,23.01009 -24.69788,23.01009 -13.682609,0 -24.697862,-10.2625 -24.697862,-23.01009 v -1.6072"
       sodipodi:nodetypes="csssc" />
    <path
       id="path27387"
       style="fill:#000000;stroke:#000000;stroke-width:0;stroke-miterlimit:3"
       d="m 105.34191,111.45947 c -6.725216,0 -12.139289,4.74967 -12.139292,10.64948 v 5.37125 h 7.372142 a 3.4999998,3.4999998 0 0 1 3.50004,3.50005 3.4999998,3.4999998 0 0 1 -3.50004,3.50004 h -7.372142 v 7.4626 h 7.372142 a 3.4999998,3.4999998 0 0 1 3.50004,3.50004 3.4999998,3.4999998 0 0 1 -3.50004,3.50005 h -7.372142 v 5.37176 c 0,5.89983 5.414076,10.64948 12.139292,10.64948 6.72524,0 12.13931,-4.74965 12.13931,-10.64948 v -32.20579 c 0,-5.89981 -5.41407,-10.64947 -12.13931,-10.64948 z" />
  </g>
</svg>
