<?xml version="1.0" encoding="UTF-8" standalone="no"?>
<!-- Created with Inkscape (http://www.inkscape.org/) -->

<svg
   width="123.96584mm"
   height="123.96513mm"
   viewBox="0 0 123.96583 123.96514"
   version="1.1"
   id="svg5"
   sodipodi:docname="icon-color.svg"
   inkscape:version="1.1.2 (0a00cf5339, 2022-02-04)"
   xmlns:inkscape="http://www.inkscape.org/namespaces/inkscape"
   xmlns:sodipodi="http://sodipodi.sourceforge.net/DTD/sodipodi-0.dtd"
   xmlns="http://www.w3.org/2000/svg"
   xmlns:svg="http://www.w3.org/2000/svg">
  <defs
     id="defs11">
    <filter
       style="color-interpolation-filters:sRGB;"
       inkscape:label="Drop Shadow"
       id="filter1754"
       x="-0.011761956"
       y="-0.01046664"
       width="1.0235239"
       height="1.0209333">
      <feFlood
         flood-opacity="1"
         flood-color="rgb(255,255,255)"
         result="flood"
         id="feFlood1744" />
      <feComposite
         in="flood"
         in2="SourceGraphic"
         operator="in"
         result="composite1"
         id="feComposite1746" />
      <feGaussianBlur
         in="composite1"
         stdDeviation="0.5"
         result="blur"
         id="feGaussianBlur1748" />
      <feOffset
         dx="0"
         dy="0"
         result="offset"
         id="feOffset1750" />
      <feComposite
         in="SourceGraphic"
         in2="offset"
         operator="over"
         result="composite2"
         id="feComposite1752" />
    </filter>
  </defs>
  <sodipodi:namedview
     id="namedview9"
     pagecolor="#000000"
     bordercolor="#666666"
     borderopacity="1.0"
     inkscape:pageshadow="2"
     inkscape:pageopacity="0"
     inkscape:pagecheckerboard="0"
     inkscape:document-units="mm"
     showgrid="false"
     units="mm"
     fit-margin-top="10"
     fit-margin-left="10"
     fit-margin-right="10"
     fit-margin-bottom="10"
     lock-margins="true"
     inkscape:zoom="0.88526979"
     inkscape:cx="122.56151"
     inkscape:cy="252.46541"
     inkscape:window-width="1920"
     inkscape:window-height="1016"
     inkscape:window-x="0"
     inkscape:window-y="27"
     inkscape:window-maximized="1"
     inkscape:current-layer="g1472"
     showguides="true"
     inkscape:guide-bbox="true" />
  <g
     inkscape:label="contour"
     inkscape:groupmode="layer"
     id="layer1"
     transform="translate(-43.358084,-86.859817)" />
  <g
     inkscape:groupmode="layer"
     id="layer2"
     inkscape:label="contour 1"
     transform="translate(-3.0161639,-3.0165826)" />
  <g
     inkscape:groupmode="layer"
     id="g27403"
     inkscape:label="mic copy"
     style="display:inline"
     transform="translate(-43.358084,-86.859817)">
    <g
       id="g1472"
       style="filter:url(#filter1754)">
      <g
         id="g1970">
        <path
           id="path3344"
           style="color:#000000;fill:#232323;fill-opacity:1;stroke-width:1.10286;stroke-linecap:round;-inkscape-stroke:none"
           d="m 106.23377,91.521275 c -8.865149,-0.05338 -17.824557,1.945836 -26.146628,6.148827 -23.671661,11.955178 -36.065856,38.647448 -29.925739,64.446148 6.140116,25.79869 29.22877,44.04429 55.748077,44.05396 a 3.8599942,3.8599942 0 0 0 0.10316,-0.005 l -6.239444,-8.09794 C 79.447584,195.54314 62.5126,180.67278 57.670621,160.32842 c -5.322187,-22.36204 5.379223,-45.40313 25.897571,-55.76575 20.518348,-10.362619 45.411718,-5.29719 60.249848,12.2589 a 3.8599942,3.8599942 0 0 0 5.43872,0.45423 3.8599942,3.8599942 0 0 0 0.45707,-5.43871 C 139.01476,99.178235 123.73778,92.139162 108.00564,91.558889 c -0.58996,-0.02176 -1.18086,-0.03406 -1.77187,-0.03761 z" />
        <path
           style="color:#000000;fill:#242424;fill-opacity:1;stroke-width:1.10286;stroke-linejoin:round;-inkscape-stroke:none"
           d="m 102.40141,181.58677 v 2.99823 11.18527 l 7.05951,9.09271 v -20.73636 -2.53985 z"
           id="path8134"
           sodipodi:nodetypes="ccccscc" />
        <path
           id="rect23362"
           style="fill:none;stroke:#242424;stroke-width:6.61713;stroke-linecap:round;stroke-linejoin:round;stroke-opacity:1"
           d="m 133.16935,152.32714 v 1.77251 c 0,14.05875 -12.14823,25.37681 -27.23819,25.37681 -15.089945,0 -27.238178,-11.31806 -27.238178,-25.37681 v -1.77251"
           sodipodi:nodetypes="csssc" />
        <path
           id="path27387"
           style="fill:#9e0006;fill-opacity:1;stroke:#000000;stroke-width:0;stroke-miterlimit:3"
           d="m 105.93116,107.61414 c -7.416946,0 -13.387886,5.2382 -13.387889,11.74484 v 5.92371 h 8.130409 a 3.8599942,3.8599942 0 0 1 3.86004,3.86005 3.8599942,3.8599942 0 0 1 -3.86004,3.86004 h -8.130409 v 8.23017 h 8.130409 a 3.8599942,3.8599942 0 0 1 3.86004,3.86004 3.8599942,3.8599942 0 0 1 -3.86004,3.86004 h -8.130409 v 5.92428 c 0,6.50666 5.970943,11.74484 13.387889,11.74484 7.41696,0 13.3879,-5.23818 13.3879,-11.74484 v -35.51833 c 0,-6.50664 -5.97094,-11.74483 -13.3879,-11.74484 z" />
      </g>
    </g>
  </g>
</svg>
