<?xml version="1.0" encoding="UTF-8" standalone="no"?>
<!-- Created with Inkscape (http://www.inkscape.org/) -->

<svg
   width="123.96584mm"
   height="123.96513mm"
   viewBox="0 0 123.96583 123.96514"
   version="1.1"
   id="svg5"
   sodipodi:docname="icon-color.svg"
   inkscape:version="1.1.2 (0a00cf5339, 2022-02-04)"
   xmlns:inkscape="http://www.inkscape.org/namespaces/inkscape"
   xmlns:sodipodi="http://sodipodi.sourceforge.net/DTD/sodipodi-0.dtd"
   xmlns="http://www.w3.org/2000/svg"
   xmlns:svg="http://www.w3.org/2000/svg">
  <defs
     id="defs11" />
  <sodipodi:namedview
     id="namedview9"
     pagecolor="#ffffff"
     bordercolor="#666666"
     borderopacity="1.0"
     inkscape:pageshadow="2"
     inkscape:pageopacity="0.0"
     inkscape:pagecheckerboard="0"
     inkscape:document-units="mm"
     showgrid="false"
     units="mm"
     fit-margin-top="10"
     fit-margin-left="10"
     fit-margin-right="10"
     fit-margin-bottom="10"
     lock-margins="true"
     inkscape:zoom="0.88526979"
     inkscape:cx="142.89429"
     inkscape:cy="263.7614"
     inkscape:window-width="1920"
     inkscape:window-height="1016"
     inkscape:window-x="0"
     inkscape:window-y="27"
     inkscape:window-maximized="1"
     inkscape:current-layer="g27403"
     showguides="true"
     inkscape:guide-bbox="true" />
  <g
     inkscape:label="contour"
     inkscape:groupmode="layer"
     id="layer1"
     transform="translate(-43.358084,-86.859817)" />
  <g
     inkscape:groupmode="layer"
     id="layer2"
     inkscape:label="contour 1"
     transform="translate(-3.0161639,-3.0165826)">
    <path
       id="path3344"
       style="color:#000000;fill:#3f3f3f;fill-opacity:1;stroke-width:1.10286;stroke-linecap:round;-inkscape-stroke:none"
       d="M 65.891847,7.6780406 C 57.026701,7.6246598 48.067293,9.6238774 39.745222,13.826868 16.073561,25.782045 3.679366,52.474317 9.819483,78.273014 c 6.140116,25.798696 29.22877,44.044296 55.748081,44.053966 a 3.8599942,3.8599942 0 0 0 0.103156,-0.005 l -6.239444,-8.09794 C 39.105664,111.69991 22.17068,96.829544 17.328701,76.485187 12.006514,54.123146 22.707924,31.082058 43.226272,20.719437 63.744619,10.356817 88.63799,15.422246 103.47612,32.97834 a 3.8599942,3.8599942 0 0 0 5.43872,0.454223 3.8599942,3.8599942 0 0 0 0.45707,-5.438712 C 98.672845,15.335001 83.395856,8.2959279 67.663718,7.715655 67.073763,7.6938949 66.482856,7.6815994 65.891847,7.6780406 Z" />
  </g>
  <g
     inkscape:groupmode="layer"
     id="g27403"
     inkscape:label="mic copy"
     style="display:inline"
     transform="translate(-43.358084,-86.859817)">
    <path
       style="color:#000000;fill:#3f3f3f;fill-opacity:1;stroke-width:1.10286;stroke-linejoin:round;-inkscape-stroke:none"
       d="m 102.40141,181.58677 v 2.99823 11.18527 l 7.05951,9.09271 v -20.73636 -2.53985 z"
       id="path8134"
       sodipodi:nodetypes="ccccscc" />
    <path
       id="rect23362"
       style="fill:none;stroke:#3f3f3f;stroke-width:6.61713;stroke-linecap:round;stroke-linejoin:round;stroke-opacity:1"
       d="m 133.16935,152.32714 v 1.77251 c 0,14.05875 -12.14823,25.37681 -27.23819,25.37681 -15.089945,0 -27.238178,-11.31806 -27.238178,-25.37681 v -1.77251"
       sodipodi:nodetypes="csssc" />
    <path
       id="path27387"
       style="fill:#9e0006;fill-opacity:1;stroke:#000000;stroke-width:0;stroke-miterlimit:3"
       d="m 105.93116,107.61414 c -7.416946,0 -13.387886,5.2382 -13.387889,11.74484 v 5.92371 h 8.130409 a 3.8599942,3.8599942 0 0 1 3.86004,3.86005 3.8599942,3.8599942 0 0 1 -3.86004,3.86004 h -8.130409 v 8.23017 h 8.130409 a 3.8599942,3.8599942 0 0 1 3.86004,3.86004 3.8599942,3.8599942 0 0 1 -3.86004,3.86004 h -8.130409 v 5.92428 c 0,6.50666 5.970943,11.74484 13.387889,11.74484 7.41696,0 13.3879,-5.23818 13.3879,-11.74484 v -35.51833 c 0,-6.50664 -5.97094,-11.74483 -13.3879,-11.74484 z" />
  </g>
</svg>
